Coordinates
version=1
nRows=8
nColumns=34
inDegrees=yes

Units are S.I. units (second, meters, Newtons, ...)
If the header above contains a line with 'inDegrees', this indicates whether rotational values are in degrees (yes) or radians (no).

endheader
time	pelvis_tilt	pelvis_list	pelvis_rotation	pelvis_tx	pelvis_ty	pelvis_tz	hip_flexion_r	hip_adduction_r	hip_rotation_r	knee_angle_r	ankle_angle_r	subtalar_angle_r	mtp_angle_r	hip_flexion_l	hip_adduction_l	hip_rotation_l	knee_angle_l	ankle_angle_l	subtalar_angle_l	mtp_angle_l	lumbar_extension	lumbar_bending	lumbar_rotation	arm_flex_r	arm_add_r	arm_rot_r	elbow_flex_r	pro_sup_r	arm_flex_l	arm_add_l	arm_rot_l	elbow_flex_l	pro_sup_l
      5.16666670	    -11.46884407	      2.09030746	     -0.55646409	      1.05320872	      0.88318204	     -0.01125596	      1.34047906	      4.08447223	      0.68326892	      0.09068432	      5.62850021	      9.21486389	      0.00000000	      1.06629718	      4.70464148	     -3.46949373	      3.03499909	     10.72703947	      9.83514091	      0.00000000	      1.64832357	      0.51906622	     -0.55214196	      2.93840454	    -16.20406479	     42.74105894	     31.25793013	     60.45298293	     -4.67408303	    -19.06855162	     29.75007242	     36.35609265	     65.41507672
      5.18333330	    -10.94244931	      2.05291298	     -0.83158917	      1.05555278	      0.88418675	     -0.01107837	      0.73041422	      4.20007123	      1.69175673	      0.39387866	      6.97362326	      8.12158216	      0.00000000	      0.41997962	      4.69432138	     -3.16342254	      3.21310494	     12.03585538	      9.34938103	      0.00000000	      1.05136775	      0.33771045	     -0.27382650	      3.71613343	    -15.56119231	     41.89435864	     29.77021897	     60.77779937	     -3.46491321	    -18.57856789	     29.38441389	     35.94465914	     65.57629094
      5.20000000	    -10.84289833	      2.03450697	     -0.99111981	      1.05969227	      0.88243513	     -0.01250968	      0.47755406	      4.27784433	      2.28672280	      0.55471143	      8.43755148	      7.79856286	      0.00000000	      0.31946121	      4.71388731	     -2.87702003	      3.65157170	     13.51959727	      8.98920881	      0.00000000	      1.00509332	      0.15844562	     -0.37013054	      4.16498070	    -15.32551448	     41.60706163	     29.48273779	     60.87201858	     -2.90805074	    -18.03675451	     29.34005951	     35.92722335	     65.64908177
      5.21666670	    -10.34582739	      2.04769700	     -1.19240970	      1.06211840	      0.87999566	     -0.01224808	     -0.18481077	      4.29734924	      2.83297108	      0.87835146	      9.28576454	      7.05748889	      0.00000000	     -0.33644031	      4.76867999	     -2.84239125	      3.92524720	     14.32683593	      8.52348625	      0.00000000	      0.61297414	     -0.01169183	     -0.14949445	      4.75456729	    -14.39045034	     40.14334241	     27.37232606	     61.39059559	     -1.84926887	    -17.14316567	     29.04980799	     34.69028503	     66.11029868
      5.23333330	    -10.32098902	      2.13630981	     -1.38918636	      1.06854924	      0.88153708	     -0.01180664	     -0.51716667	      4.26035695	      3.12669541	      0.80897811	      9.99960843	      6.98031307	      0.00000000	     -0.49564420	      4.89202928	     -2.93516828	      4.17603278	     15.12820901	      8.16482051	      0.00000000	      0.74325801	     -0.36093990	     -0.21385124	      4.74910604	    -14.03175600	     39.93863657	     27.24973251	     61.50216393	     -1.72956750	    -16.65034838	     29.09308506	     34.65378518	     66.21950152
      5.25000000	    -10.06958012	      2.17137852	     -1.62868404	      1.06777162	      0.88376289	     -0.01062908	     -0.98612077	      4.25969943	      3.47215053	      0.88089054	     10.57337770	      6.83645818	      0.00000000	     -0.96469331	      4.94207496	     -3.01087176	      4.21576765	     15.48591706	      7.94647988	      0.00000000	      0.58542660	     -0.54713039	      0.14914158	      4.96110875	    -13.15375488	     38.17709920	     25.56490006	     62.18378485	     -0.99297126	    -15.76680321	     28.98742399	     33.58529592	     66.98021472
      5.26666670	    -10.16301352	      2.13020598	     -1.70365689	      1.06871978	      0.88491439	     -0.01173382	     -1.14223018	      4.31109328	      3.57801492	      0.77204437	     10.66014664	      6.87242981	      0.00000000	     -1.05552293	      4.89325332	     -3.03770981	      4.23027561	     15.57043636	      7.88737497	      0.00000000	      0.75224824	     -0.74607847	      0.08270240	      4.95544178	    -12.82568541	     38.14569123	     25.64623717	     62.22089934	     -0.95969571	    -15.26250330	     29.07071089	     33.68707123	     67.02460281
      5.28333330	    -10.23753355	      2.07194460	     -1.76229191	      1.06844562	      0.88317919	     -0.01067576	     -1.21507977	      4.37410955	      3.67570828	      0.64000399	     10.72301916	      6.90462074	      0.00000000	     -1.13457493	      4.83824878	     -3.10274522	      4.28945164	     15.59923924	      7.81823023	      0.00000000	      0.81091147	     -0.95401280	     -0.00786791	      4.91717841	    -12.61269137	     38.12456584	     25.67452161	     62.24006170	     -0.91545813	    -14.87063593	     29.13301901	     33.76130403	     67.05315877
